#!OML:ASF F:\VICON\USERDATA\INSTALL\rory3\rory3.ASF
:FULLY-SPECIFIED
:DEGREES
1458
root -0.921418 17.8565 0.69461 4.59612 8.40101 -1.63272
lowerback 7.29132 0.19588 -0.423598
upperback 0.151267 0.15102 -1.87774
thorax -3.93008 0.0667464 -1.72146
lowerneck -25.2978 -14.572 -12.7434
upperneck 4.75955 -17.8456 17.3521
head 8.28231 -7.352 4.97437
rclavicle -4.17448e-015 -3.4191e-014
rhumerus 45.7349 -27.3956 -24.6785
rradius 40.4436
rwrist 46.6915
rhand -57.1648 -15.4052
rfingers 7.12502
rthumb -29.4488 -43.0909
lclavicle -4.17448e-015 -3.4191e-014
lhumerus -41.2707 9.70317 64.7674
lradius 54.2059
lwrist -2.92801
lhand -20.4043 25.0628
lfingers 7.12502
lthumb 5.94947 54.9593
rfemur -14.925 -0.324985 16.0941
rtibia 28.6017
rfoot -15.4422 -6.25264
rtoes -0.040832
lfemur -12.2098 1.35768 -11.2882
ltibia 23.1114
lfoot -10.0725 13.1443
ltoes -17.732
1459
root -0.959812 17.857 0.699369 4.57716 8.16287 -1.59666
lowerback 7.31017 0.150032 -0.312246
upperback 0.205721 0.109538 -1.63444
thorax -3.8853 0.0464494 -1.52724
lowerneck -25.4488 -14.5362 -12.6865
upperneck 4.77878 -17.7699 17.1971
head 8.27513 -7.32014 4.92588
rclavicle 1.07344e-014 1.90833e-014
rhumerus 45.4936 -27.9478 -25.0267
rradius 40.58
rwrist 46.0692
rhand -56.9658 -16.7903
rfingers 7.12502
rthumb -29.2588 -44.5092
lclavicle 1.07344e-014 1.90833e-014
lhumerus -41.0749 9.4438 65.3258
lradius 54.4593
lwrist -2.8106
lhand -20.4018 24.9558
lfingers 7.12502
lthumb 5.95194 54.8522
rfemur -15.0828 -0.29259 16.1918
rtibia 28.8371
rfoot -15.4498 -6.09048
rtoes -0.34571
lfemur -11.9797 1.26847 -11.1978
ltibia 22.8601
lfoot -9.9086 13.4311
ltoes -18.0734
1460
root -0.996887 17.8562 0.703714 4.61911 7.90356 -1.47547
lowerback 7.192 0.0697156 -0.245088
upperback 0.343944 0.020232 -1.41249
thorax -3.67774 0.00367097 -1.32445
lowerneck -25.4419 -14.5022 -12.9174
upperneck 4.48354 -17.6535 17.4815
head 8.21484 -7.25767 5.08085
rclavicle -6.36111e-015 -3.97569e-015
rhumerus 45.6293 -28.6042 -25.6886
rradius 40.5474
rwrist 45.3577
rhand -56.6694 -17.3258
rfingers 7.12502
rthumb -28.9758 -45.0938
lclavicle -6.36111e-015 -3.97569e-015
lhumerus -40.7758 9.3838 65.8536
lradius 54.7526
lwrist -2.61174
lhand -20.3304 24.9959
lfingers 7.12502
lthumb 6.02082 54.8903
rfemur -15.2957 -0.19163 16.1786
rtibia 29.0925
rfoot -15.4955 -5.91956
rtoes -0.118686
lfemur -11.8248 1.10532 -11.2278
ltibia 22.6482
lfoot -9.71643 13.889
ltoes -18.6031
1461
root -1.03216 17.8514 0.709615 4.65249 7.59023 -1.23845
lowerback 7.09626 0.00773401 -0.260897
upperback 0.443349 -0.0552995 -1.25277
thorax -3.52247 -0.031834 -1.14195
lowerneck -25.4485 -14.5004 -13.0535
upperneck 4.3906 -17.6155 17.6152
head 8.208 -7.23494 5.15345
rclavicle -5.56597e-015 7.95139e-015
rhumerus 45.6484 -29.177 -26.3066
rradius 40.5888
rwrist 44.9125
rhand -56.2727 -18.3839
rfingers 7.12502
rthumb -28.5968 -46.2162
lclavicle -5.56597e-015 7.95139e-015
lhumerus -40.5251 9.33642 66.3131
lradius 54.995
lwrist -2.57591
lhand -19.9602 25.602
lfingers 7.12502
lthumb 6.37827 55.486
rfemur -15.4969 -0.125372 16.0357
rtibia 29.3742
rfoot -15.4761 -5.71895
rtoes -0.348986
lfemur -11.583 0.991855 -11.3866
ltibia 22.3822
lfoot -9.59414 14.2988
ltoes -18.5599
1462
root -1.07037 17.8475 0.713782 4.65291 7.33371 -1.16506
lowerback 7.11508 -0.0533526 -0.188072
upperback 0.443506 -0.123113 -1.03613
thorax -3.53363 -0.0651607 -0.952175
lowerneck -25.5271 -14.51 -13.0464
upperneck 4.62704 -17.6294 17.4514
head 8.27903 -7.24314 5.09056
rclavicle -3.97569e-016 -8.74653e-015
rhumerus 45.5412 -29.538 -26.7856
rradius 40.6198
rwrist 44.3847
rhand -56.0571 -19.1032
rfingers 7.12502
rthumb -28.3908 -46.9701
lclavicle -3.97569e-016 -8.74653e-015
lhumerus -40.4403 9.1468 66.7552
lradius 55.2326
lwrist -2.66274
lhand -19.3808 25.4023
lfingers 7.12502
lthumb 6.93754 55.2686
rfemur -15.6737 -0.0259205 16.087
rtibia 29.6642
rfoot -15.5714 -5.51799
rtoes -0.159924
lfemur -11.3437 0.944076 -11.3342
ltibia 22.0638
lfoot -9.44267 14.5842
ltoes -18.447
1463
root -1.10961 17.848 0.719294 4.65583 6.99756 -0.916225
lowerback 7.14415 -0.0672374 -0.356337
upperback 0.483039 -0.147636 -0.835924
thorax -3.50834 -0.0732334 -0.648217
lowerneck -25.463 -14.4791 -13.1069
upperneck 4.6521 -17.5714 17.4042
head 8.26827 -7.22496 5.09785
rclavicle 2.36057e-014 1.47101e-014
rhumerus 45.6425 -29.9582 -27.4131
rradius 40.3867
rwrist 43.6139
rhand -56.1351 -16.2116
rfingers 7.12502
rthumb -28.4653 -44.0661
lclavicle 2.36057e-014 1.47101e-014
lhumerus -40.2408 8.93017 67.3048
lradius 55.4992
lwrist -2.73011
lhand -19.7561 23.5473
lfingers 7.12502
lthumb 6.5753 53.4252
rfemur -15.8495 0.139448 15.9355
rtibia 29.939
rfoot -15.6206 -5.3327
rtoes 0.120172
lfemur -11.0448 0.743377 -11.4874
ltibia 21.7313
lfoot -9.27877 15.081
ltoes -18.1767
1464
root -1.14567 17.8501 0.725134 4.79393 6.65691 -0.59198
lowerback 7.09539 -0.0809618 -0.543199
upperback 0.459775 -0.174508 -0.666445
thorax -3.5042 -0.0825404 -0.365511
lowerneck -25.3396 -14.4729 -13.1368
upperneck 4.69779 -17.5527 17.2702
head 8.24718 -7.23466 5.06535
rclavicle 1.02374e-014 1.35174e-014
rhumerus 46.0125 -30.5885 -28.3502
rradius 39.9709
rwrist 43.351
rhand -56.3762 -13.9646
rfingers 7.12502
rthumb -28.6957 -41.7803
lclavicle 1.02374e-014 1.35174e-014
lhumerus -40.047 8.64033 67.8544
lradius 55.754
lwrist -2.80287
lhand -20.1251 25.4155
lfingers 7.12502
lthumb 6.21902 55.3043
rfemur -16.1351 0.237256 15.6845
rtibia 30.1768
rfoot -15.6067 -5.09135
rtoes 0.692307
lfemur -10.8935 0.566226 -11.7452
ltibia 21.4176
lfoot -9.111 15.5824
ltoes -17.8443
1465
root -1.18127 17.8513 0.730937 4.8576 6.47259 -0.411054
lowerback 7.04954 -0.1676 -0.536244
upperback 0.481913 -0.282317 -0.492083
thorax -3.45498 -0.135059 -0.178762
lowerneck -25.7468 -14.4673 -12.8418
upperneck 5.19631 -17.5689 16.7364
head 8.38439 -7.24329 4.82439
rclavicle -1.50082e-014 -7.95139e-016
rhumerus 46.2402 -31.3379 -29.4523
rradius 39.9351
rwrist 43.2005
rhand -56.6329 -15.8887
rfingers 7.12502
rthumb -28.9409 -43.6626
lclavicle -1.50082e-014 -7.95139e-016
lhumerus -39.7906 8.36547 68.2785
lradius 56.0064
lwrist -2.99496
lhand -18.8955 27.2818
lfingers 7.12502
lthumb 7.40601 57.1321
rfemur -16.2913 0.251483 15.6116
rtibia 30.3853
rfoot -15.6125 -4.92408
rtoes 0.924524
lfemur -10.7103 0.47635 -11.8284
ltibia 21.0843
lfoot -8.93365 15.8351
ltoes -17.4153
1466
root -1.21807 17.852 0.736066 4.92968 6.29541 -0.267193
lowerback 6.99078 -0.281297 -0.427738
upperback 0.474507 -0.421244 -0.396302
thorax -3.42966 -0.205093 -0.127371
lowerneck -26.0686 -14.3918 -12.3981
upperneck 5.57531 -17.5546 16.3264
head 8.46964 -7.23333 4.61303
rclavicle -2.18663e-015 -6.95746e-015
rhumerus 46.2577 -31.7871 -30.3804
rradius 39.9415
rwrist 42.0966
rhand -56.529 -18.5259
rfingers 7.12502
rthumb -28.8417 -46.3168
lclavicle -2.18663e-015 -6.95746e-015
lhumerus -39.6378 8.02371 68.5424
lradius 56.2989
lwrist -3.04945
lhand -18.3324 27.4219
lfingers 7.12502
lthumb 7.94955 57.2524
rfemur -16.4665 0.267146 15.5918
rtibia 30.5707
rfoot -15.6143 -4.81022
rtoes 0.620909
lfemur -10.5389 0.302029 -11.8536
ltibia 20.7784
lfoot -8.88176 16.1246
ltoes -17.2879
1467
root -1.25345 17.8561 0.740762 5.00749 6.07059 -0.123605
lowerback 7.05738 -0.397034 -0.240575
upperback 0.370892 -0.559854 -0.350071
thorax -3.57541 -0.276316 -0.170262
lowerneck -25.6396 -14.2784 -12.244
upperneck 5.31032 -17.4875 16.4533
head 8.31084 -7.22112 4.66345
rclavicle -5.34234e-015 -1.76918e-014
rhumerus 46.1368 -32.005 -31.1825
rradius 39.9063
rwrist 40.345
rhand -56.4651 -19.4154
rfingers 7.12502
rthumb -28.7806 -47.2167
lclavicle -5.34234e-015 -1.76918e-014
lhumerus -39.6839 7.56853 68.7174
lradius 56.5812
lwrist -3.08728
lhand -18.7116 27.0834
lfingers 7.12502
lthumb 7.58349 56.9274
rfemur -16.669 0.277255 15.5592
rtibia 30.7435
rfoot -15.624 -4.64081
rtoes 0.585916
lfemur -10.3909 0.0485692 -11.8856
ltibia 20.5011
lfoot -8.85028 16.5379
ltoes -17.5195
1468
root -1.28875 17.8582 0.747174 4.99552 5.9049 0.0241123
lowerback 7.13129 -0.518261 -0.126821
upperback 0.348392 -0.708327 -0.240511
thorax -3.64034 -0.350971 -0.105313
lowerneck -25.2301 -14.1939 -12.2141
upperneck 5.03476 -17.4036 16.5287
head 8.15259 -7.20804 4.7178
rclavicle -2.39163e-014 -1.61016e-014
rhumerus 45.9797 -32.2547 -31.7649
rradius 39.8653
rwrist 38.1452
rhand -56.8046 -19.3809
rfingers 7.12502
rthumb -29.1049 -47.1266
lclavicle -2.39163e-014 -1.61016e-014
lhumerus -39.6364 6.96997 69.0427
lradius 56.9558
lwrist -3.05901
lhand -18.7305 27.2238
lfingers 7.12502
lthumb 7.56532 57.0685
rfemur -16.755 0.278683 15.5351
rtibia 30.935
rfoot -15.6929 -4.53861
rtoes 0.214403
lfemur -10.1855 -0.0341856 -11.9231
ltibia 20.2234
lfoot -8.62903 16.7651
ltoes -18.0071
1469
root -1.3241 17.8568 0.752772 5.02703 5.76012 0.191264
lowerback 7.03485 -0.591 -0.0934334
upperback 0.440478 -0.796452 -0.0929091
thorax -3.48943 -0.394319 0.0355606
lowerneck -25.2384 -14.1877 -12.335
upperneck 5.00535 -17.3807 16.6932
head 8.17192 -7.18676 4.79399
rclavicle 7.7526e-015 8.49804e-015
rhumerus 45.8727 -32.7091 -32.1637
rradius 39.7328
rwrist 35.517
rhand -57.115 -19.1413
rfingers 7.12502
rthumb -29.4012 -46.8353
lclavicle 7.7526e-015 8.49804e-015
lhumerus -39.3259 6.30082 69.5764
lradius 57.3006
lwrist -2.82417
lhand -18.8655 26.7827
lfingers 7.12502
lthumb 7.43501 56.632
rfemur -16.8902 0.323467 15.4761
rtibia 31.1336
rfoot -15.7403 -4.40674
rtoes 0.571383
lfemur -10.0314 -0.00952737 -11.9896
ltibia 19.9769
lfoot -8.47405 16.8799
ltoes -17.8232
